<?xml version="1.0" encoding="UTF-8" standalone="no"?>
<!DOCTYPE svg PUBLIC "-//W3C//DTD SVG 1.1//EN"
 "http://www.w3.org/Graphics/SVG/1.1/DTD/svg11.dtd">
<!-- Generated by graphviz version 11.0.0 (20240519.1550)
 -->
<!-- Title: snakemake_dag Pages: 1 -->
<svg width="212pt" height="188pt"
 viewBox="0.00 0.00 212.25 188.00" xmlns="http://www.w3.org/2000/svg" xmlns:xlink="http://www.w3.org/1999/xlink">
<g id="graph0" class="graph" transform="scale(1 1) rotate(0) translate(4 184)">
<title>snakemake_dag</title>
<polygon fill="white" stroke="none" points="-4,4 -4,-184 208.25,-184 208.25,4 -4,4"/>
<!-- 0 -->
<g id="node1" class="node">
<title>0</title>
<path fill="none" stroke="#afd856" stroke-width="2" d="M81.25,-36C81.25,-36 12,-36 12,-36 6,-36 0,-30 0,-24 0,-24 0,-12 0,-12 0,-6 6,0 12,0 12,0 81.25,0 81.25,0 87.25,0 93.25,-6 93.25,-12 93.25,-12 93.25,-24 93.25,-24 93.25,-30 87.25,-36 81.25,-36"/>
<text text-anchor="middle" x="46.62" y="-14.88" font-family="sans" font-size="10.00">samtools_index</text>
</g>
<!-- 1 -->
<g id="node2" class="node">
<title>1</title>
<path fill="none" stroke="#56d8a9" stroke-width="2" stroke-dasharray="5,2" d="M77.12,-108C77.12,-108 16.12,-108 16.12,-108 10.12,-108 4.12,-102 4.12,-96 4.12,-96 4.12,-84 4.12,-84 4.12,-78 10.12,-72 16.12,-72 16.12,-72 77.12,-72 77.12,-72 83.12,-72 89.12,-78 89.12,-84 89.12,-84 89.12,-96 89.12,-96 89.12,-102 83.12,-108 77.12,-108"/>
<text text-anchor="middle" x="46.62" y="-86.88" font-family="sans" font-size="10.00">samtools_sort</text>
</g>
<!-- 1&#45;&gt;0 -->
<g id="edge1" class="edge">
<title>1&#45;&gt;0</title>
<path fill="none" stroke="grey" stroke-width="2" d="M46.62,-71.34C46.62,-64.75 46.62,-57.08 46.62,-49.67"/>
<polygon fill="grey" stroke="grey" stroke-width="2" points="50.13,-49.93 46.63,-39.93 43.13,-49.93 50.13,-49.93"/>
</g>
<!-- 2 -->
<g id="node3" class="node">
<title>2</title>
<path fill="none" stroke="#d85656" stroke-width="2" stroke-dasharray="5,2" d="M67,-180C67,-180 26.25,-180 26.25,-180 20.25,-180 14.25,-174 14.25,-168 14.25,-168 14.25,-156 14.25,-156 14.25,-150 20.25,-144 26.25,-144 26.25,-144 67,-144 67,-144 73,-144 79,-150 79,-156 79,-156 79,-168 79,-168 79,-174 73,-180 67,-180"/>
<text text-anchor="middle" x="46.62" y="-165.25" font-family="sans" font-size="10.00">bwa_map</text>
<text text-anchor="middle" x="46.62" y="-152.5" font-family="sans" font-size="10.00">sample: B</text>
</g>
<!-- 2&#45;&gt;1 -->
<g id="edge2" class="edge">
<title>2&#45;&gt;1</title>
<path fill="none" stroke="grey" stroke-width="2" d="M46.62,-143.34C46.62,-136.75 46.62,-129.08 46.62,-121.67"/>
<polygon fill="grey" stroke="grey" stroke-width="2" points="50.13,-121.93 46.63,-111.93 43.13,-121.93 50.13,-121.93"/>
</g>
<!-- 3 -->
<g id="node4" class="node">
<title>3</title>
<path fill="none" stroke="#afd856" stroke-width="2" d="M192.25,-36C192.25,-36 123,-36 123,-36 117,-36 111,-30 111,-24 111,-24 111,-12 111,-12 111,-6 117,0 123,0 123,0 192.25,0 192.25,0 198.25,0 204.25,-6 204.25,-12 204.25,-12 204.25,-24 204.25,-24 204.25,-30 198.25,-36 192.25,-36"/>
<text text-anchor="middle" x="157.62" y="-14.88" font-family="sans" font-size="10.00">samtools_index</text>
</g>
<!-- 4 -->
<g id="node5" class="node">
<title>4</title>
<path fill="none" stroke="#56d8a9" stroke-width="2" stroke-dasharray="5,2" d="M188.12,-108C188.12,-108 127.12,-108 127.12,-108 121.12,-108 115.12,-102 115.12,-96 115.12,-96 115.12,-84 115.12,-84 115.12,-78 121.12,-72 127.12,-72 127.12,-72 188.12,-72 188.12,-72 194.12,-72 200.12,-78 200.12,-84 200.12,-84 200.12,-96 200.12,-96 200.12,-102 194.12,-108 188.12,-108"/>
<text text-anchor="middle" x="157.62" y="-86.88" font-family="sans" font-size="10.00">samtools_sort</text>
</g>
<!-- 4&#45;&gt;3 -->
<g id="edge3" class="edge">
<title>4&#45;&gt;3</title>
<path fill="none" stroke="grey" stroke-width="2" d="M157.62,-71.34C157.62,-64.75 157.62,-57.08 157.62,-49.67"/>
<polygon fill="grey" stroke="grey" stroke-width="2" points="161.13,-49.93 157.63,-39.93 154.13,-49.93 161.13,-49.93"/>
</g>
<!-- 5 -->
<g id="node6" class="node">
<title>5</title>
<path fill="none" stroke="#d85656" stroke-width="2" stroke-dasharray="5,2" d="M178,-180C178,-180 137.25,-180 137.25,-180 131.25,-180 125.25,-174 125.25,-168 125.25,-168 125.25,-156 125.25,-156 125.25,-150 131.25,-144 137.25,-144 137.25,-144 178,-144 178,-144 184,-144 190,-150 190,-156 190,-156 190,-168 190,-168 190,-174 184,-180 178,-180"/>
<text text-anchor="middle" x="157.62" y="-165.25" font-family="sans" font-size="10.00">bwa_map</text>
<text text-anchor="middle" x="157.62" y="-152.5" font-family="sans" font-size="10.00">sample: A</text>
</g>
<!-- 5&#45;&gt;4 -->
<g id="edge4" class="edge">
<title>5&#45;&gt;4</title>
<path fill="none" stroke="grey" stroke-width="2" d="M157.62,-143.34C157.62,-136.75 157.62,-129.08 157.62,-121.67"/>
<polygon fill="grey" stroke="grey" stroke-width="2" points="161.13,-121.93 157.63,-111.93 154.13,-121.93 161.13,-121.93"/>
</g>
</g>
</svg>
