<?xml version="1.0" encoding="UTF-8" standalone="no"?>
<!DOCTYPE svg PUBLIC "-//W3C//DTD SVG 1.1//EN"
 "http://www.w3.org/Graphics/SVG/1.1/DTD/svg11.dtd">
<!-- Generated by graphviz version 11.0.0 (20240519.1550)
 -->
<!-- Title: snakemake_dag Pages: 1 -->
<svg width="434pt" height="260pt"
 viewBox="0.00 0.00 434.12 260.00" xmlns="http://www.w3.org/2000/svg" xmlns:xlink="http://www.w3.org/1999/xlink">
<g id="graph0" class="graph" transform="scale(1 1) rotate(0) translate(4 256)">
<title>snakemake_dag</title>
<polygon fill="white" stroke="none" points="-4,4 -4,-256 430.12,-256 430.12,4 -4,4"/>
<!-- 0 -->
<g id="node1" class="node">
<title>0</title>
<path fill="none" stroke="#d85656" stroke-width="2" d="M217.88,-36C217.88,-36 165.12,-36 165.12,-36 159.12,-36 153.12,-30 153.12,-24 153.12,-24 153.12,-12 153.12,-12 153.12,-6 159.12,0 165.12,0 165.12,0 217.88,0 217.88,0 223.88,0 229.88,-6 229.88,-12 229.88,-12 229.88,-24 229.88,-24 229.88,-30 223.88,-36 217.88,-36"/>
<text text-anchor="middle" x="191.5" y="-14.88" font-family="sans" font-size="10.00">bcftools_call</text>
</g>
<!-- 1 -->
<g id="node2" class="node">
<title>1</title>
<path fill="none" stroke="#56d8d8" stroke-width="2" d="M73,-180C73,-180 12,-180 12,-180 6,-180 0,-174 0,-168 0,-168 0,-156 0,-156 0,-150 6,-144 12,-144 12,-144 73,-144 73,-144 79,-144 85,-150 85,-156 85,-156 85,-168 85,-168 85,-174 79,-180 73,-180"/>
<text text-anchor="middle" x="42.5" y="-158.88" font-family="sans" font-size="10.00">samtools_sort</text>
</g>
<!-- 1&#45;&gt;0 -->
<g id="edge1" class="edge">
<title>1&#45;&gt;0</title>
<path fill="none" stroke="grey" stroke-width="2" d="M31.16,-143.23C20.44,-123.92 8.09,-93.02 23.5,-72 49.84,-36.07 100.61,-23.87 139.47,-20.03"/>
<polygon fill="grey" stroke="grey" stroke-width="2" points="139.69,-23.52 149.38,-19.24 139.14,-16.54 139.69,-23.52"/>
</g>
<!-- 7 -->
<g id="node8" class="node">
<title>7</title>
<path fill="none" stroke="#59d856" stroke-width="2" d="M114.12,-108C114.12,-108 44.88,-108 44.88,-108 38.88,-108 32.88,-102 32.88,-96 32.88,-96 32.88,-84 32.88,-84 32.88,-78 38.88,-72 44.88,-72 44.88,-72 114.12,-72 114.12,-72 120.12,-72 126.12,-78 126.12,-84 126.12,-84 126.12,-96 126.12,-96 126.12,-102 120.12,-108 114.12,-108"/>
<text text-anchor="middle" x="79.5" y="-86.88" font-family="sans" font-size="10.00">samtools_index</text>
</g>
<!-- 1&#45;&gt;7 -->
<g id="edge10" class="edge">
<title>1&#45;&gt;7</title>
<path fill="none" stroke="grey" stroke-width="2" d="M51.84,-143.34C55.53,-136.34 59.88,-128.12 64.02,-120.28"/>
<polygon fill="grey" stroke="grey" stroke-width="2" points="67.04,-122.05 68.62,-111.58 60.86,-118.78 67.04,-122.05"/>
</g>
<!-- 2 -->
<g id="node3" class="node">
<title>2</title>
<path fill="none" stroke="#d6d856" stroke-width="2" d="M62.88,-252C62.88,-252 22.12,-252 22.12,-252 16.12,-252 10.12,-246 10.12,-240 10.12,-240 10.12,-228 10.12,-228 10.12,-222 16.12,-216 22.12,-216 22.12,-216 62.88,-216 62.88,-216 68.88,-216 74.88,-222 74.88,-228 74.88,-228 74.88,-240 74.88,-240 74.88,-246 68.88,-252 62.88,-252"/>
<text text-anchor="middle" x="42.5" y="-237.25" font-family="sans" font-size="10.00">bwa_map</text>
<text text-anchor="middle" x="42.5" y="-224.5" font-family="sans" font-size="10.00">sample: A</text>
</g>
<!-- 2&#45;&gt;1 -->
<g id="edge7" class="edge">
<title>2&#45;&gt;1</title>
<path fill="none" stroke="grey" stroke-width="2" d="M42.5,-215.34C42.5,-208.75 42.5,-201.08 42.5,-193.67"/>
<polygon fill="grey" stroke="grey" stroke-width="2" points="46,-193.93 42.5,-183.93 39,-193.93 46,-193.93"/>
</g>
<!-- 3 -->
<g id="node4" class="node">
<title>3</title>
<path fill="none" stroke="#56d8d8" stroke-width="2" d="M241,-180C241,-180 180,-180 180,-180 174,-180 168,-174 168,-168 168,-168 168,-156 168,-156 168,-150 174,-144 180,-144 180,-144 241,-144 241,-144 247,-144 253,-150 253,-156 253,-156 253,-168 253,-168 253,-174 247,-180 241,-180"/>
<text text-anchor="middle" x="210.5" y="-158.88" font-family="sans" font-size="10.00">samtools_sort</text>
</g>
<!-- 3&#45;&gt;0 -->
<g id="edge2" class="edge">
<title>3&#45;&gt;0</title>
<path fill="none" stroke="grey" stroke-width="2" d="M194.08,-143.37C186.2,-133.71 177.61,-121.06 173.5,-108 167.4,-88.61 172.01,-66.18 178.09,-48.69"/>
<polygon fill="grey" stroke="grey" stroke-width="2" points="181.3,-50.08 181.66,-39.49 174.78,-47.55 181.3,-50.08"/>
</g>
<!-- 8 -->
<g id="node9" class="node">
<title>8</title>
<path fill="none" stroke="#59d856" stroke-width="2" d="M264.12,-108C264.12,-108 194.88,-108 194.88,-108 188.88,-108 182.88,-102 182.88,-96 182.88,-96 182.88,-84 182.88,-84 182.88,-78 188.88,-72 194.88,-72 194.88,-72 264.12,-72 264.12,-72 270.12,-72 276.12,-78 276.12,-84 276.12,-84 276.12,-96 276.12,-96 276.12,-102 270.12,-108 264.12,-108"/>
<text text-anchor="middle" x="229.5" y="-86.88" font-family="sans" font-size="10.00">samtools_index</text>
</g>
<!-- 3&#45;&gt;8 -->
<g id="edge11" class="edge">
<title>3&#45;&gt;8</title>
<path fill="none" stroke="grey" stroke-width="2" d="M215.29,-143.34C217.1,-136.67 219.22,-128.89 221.25,-121.39"/>
<polygon fill="grey" stroke="grey" stroke-width="2" points="224.61,-122.39 223.85,-111.82 217.85,-120.56 224.61,-122.39"/>
</g>
<!-- 4 -->
<g id="node5" class="node">
<title>4</title>
<path fill="none" stroke="#d6d856" stroke-width="2" d="M230.88,-252C230.88,-252 190.12,-252 190.12,-252 184.12,-252 178.12,-246 178.12,-240 178.12,-240 178.12,-228 178.12,-228 178.12,-222 184.12,-216 190.12,-216 190.12,-216 230.88,-216 230.88,-216 236.88,-216 242.88,-222 242.88,-228 242.88,-228 242.88,-240 242.88,-240 242.88,-246 236.88,-252 230.88,-252"/>
<text text-anchor="middle" x="210.5" y="-237.25" font-family="sans" font-size="10.00">bwa_map</text>
<text text-anchor="middle" x="210.5" y="-224.5" font-family="sans" font-size="10.00">sample: B</text>
</g>
<!-- 4&#45;&gt;3 -->
<g id="edge8" class="edge">
<title>4&#45;&gt;3</title>
<path fill="none" stroke="grey" stroke-width="2" d="M210.5,-215.34C210.5,-208.75 210.5,-201.08 210.5,-193.67"/>
<polygon fill="grey" stroke="grey" stroke-width="2" points="214,-193.93 210.5,-183.93 207,-193.93 214,-193.93"/>
</g>
<!-- 5 -->
<g id="node6" class="node">
<title>5</title>
<path fill="none" stroke="#56d8d8" stroke-width="2" d="M353,-180C353,-180 292,-180 292,-180 286,-180 280,-174 280,-168 280,-168 280,-156 280,-156 280,-150 286,-144 292,-144 292,-144 353,-144 353,-144 359,-144 365,-150 365,-156 365,-156 365,-168 365,-168 365,-174 359,-180 353,-180"/>
<text text-anchor="middle" x="322.5" y="-158.88" font-family="sans" font-size="10.00">samtools_sort</text>
</g>
<!-- 5&#45;&gt;0 -->
<g id="edge3" class="edge">
<title>5&#45;&gt;0</title>
<path fill="none" stroke="grey" stroke-width="2" d="M318.74,-143.09C313.9,-123.66 303.82,-92.65 285.5,-72 273.71,-58.71 257.76,-47.99 242.34,-39.77"/>
<polygon fill="grey" stroke="grey" stroke-width="2" points="243.95,-36.66 233.44,-35.32 240.82,-42.92 243.95,-36.66"/>
</g>
<!-- 9 -->
<g id="node10" class="node">
<title>9</title>
<path fill="none" stroke="#59d856" stroke-width="2" d="M414.12,-108C414.12,-108 344.88,-108 344.88,-108 338.88,-108 332.88,-102 332.88,-96 332.88,-96 332.88,-84 332.88,-84 332.88,-78 338.88,-72 344.88,-72 344.88,-72 414.12,-72 414.12,-72 420.12,-72 426.12,-78 426.12,-84 426.12,-84 426.12,-96 426.12,-96 426.12,-102 420.12,-108 414.12,-108"/>
<text text-anchor="middle" x="379.5" y="-86.88" font-family="sans" font-size="10.00">samtools_index</text>
</g>
<!-- 5&#45;&gt;9 -->
<g id="edge12" class="edge">
<title>5&#45;&gt;9</title>
<path fill="none" stroke="grey" stroke-width="2" d="M336.88,-143.34C342.91,-135.93 350.07,-127.14 356.78,-118.9"/>
<polygon fill="grey" stroke="grey" stroke-width="2" points="359.41,-121.21 363.01,-111.25 353.98,-116.79 359.41,-121.21"/>
</g>
<!-- 6 -->
<g id="node7" class="node">
<title>6</title>
<path fill="none" stroke="#d6d856" stroke-width="2" d="M342.88,-252C342.88,-252 302.12,-252 302.12,-252 296.12,-252 290.12,-246 290.12,-240 290.12,-240 290.12,-228 290.12,-228 290.12,-222 296.12,-216 302.12,-216 302.12,-216 342.88,-216 342.88,-216 348.88,-216 354.88,-222 354.88,-228 354.88,-228 354.88,-240 354.88,-240 354.88,-246 348.88,-252 342.88,-252"/>
<text text-anchor="middle" x="322.5" y="-237.25" font-family="sans" font-size="10.00">bwa_map</text>
<text text-anchor="middle" x="322.5" y="-224.5" font-family="sans" font-size="10.00">sample: C</text>
</g>
<!-- 6&#45;&gt;5 -->
<g id="edge9" class="edge">
<title>6&#45;&gt;5</title>
<path fill="none" stroke="grey" stroke-width="2" d="M322.5,-215.34C322.5,-208.75 322.5,-201.08 322.5,-193.67"/>
<polygon fill="grey" stroke="grey" stroke-width="2" points="326,-193.93 322.5,-183.93 319,-193.93 326,-193.93"/>
</g>
<!-- 7&#45;&gt;0 -->
<g id="edge4" class="edge">
<title>7&#45;&gt;0</title>
<path fill="none" stroke="grey" stroke-width="2" d="M108.05,-71.15C121.48,-62.76 137.71,-52.62 152.26,-43.52"/>
<polygon fill="grey" stroke="grey" stroke-width="2" points="153.81,-46.68 160.43,-38.42 150.1,-40.75 153.81,-46.68"/>
</g>
<!-- 8&#45;&gt;0 -->
<g id="edge5" class="edge">
<title>8&#45;&gt;0</title>
<path fill="none" stroke="grey" stroke-width="2" d="M219.91,-71.34C216.11,-64.34 211.65,-56.12 207.39,-48.28"/>
<polygon fill="grey" stroke="grey" stroke-width="2" points="210.51,-46.68 202.66,-39.56 204.36,-50.02 210.51,-46.68"/>
</g>
<!-- 9&#45;&gt;0 -->
<g id="edge6" class="edge">
<title>9&#45;&gt;0</title>
<path fill="none" stroke="grey" stroke-width="2" d="M332.06,-71.34C304.77,-61.18 270.48,-48.41 242.6,-38.02"/>
<polygon fill="grey" stroke="grey" stroke-width="2" points="244.11,-34.85 233.52,-34.65 241.67,-41.41 244.11,-34.85"/>
</g>
</g>
</svg>
