<?xml version="1.0" encoding="UTF-8" standalone="no"?>
<!DOCTYPE svg PUBLIC "-//W3C//DTD SVG 1.1//EN"
 "http://www.w3.org/Graphics/SVG/1.1/DTD/svg11.dtd">
<!-- Generated by graphviz version 11.0.0 (20240519.1550)
 -->
<!-- Title: snakemake_dag Pages: 1 -->
<svg width="434pt" height="404pt"
 viewBox="0.00 0.00 434.12 404.00" xmlns="http://www.w3.org/2000/svg" xmlns:xlink="http://www.w3.org/1999/xlink">
<g id="graph0" class="graph" transform="scale(1 1) rotate(0) translate(4 400)">
<title>snakemake_dag</title>
<polygon fill="white" stroke="none" points="-4,4 -4,-400 430.12,-400 430.12,4 -4,4"/>
<!-- 0 -->
<g id="node1" class="node">
<title>0</title>
<path fill="none" stroke="#d85656" stroke-width="2" d="M206.5,-36C206.5,-36 176.5,-36 176.5,-36 170.5,-36 164.5,-30 164.5,-24 164.5,-24 164.5,-12 164.5,-12 164.5,-6 170.5,0 176.5,0 176.5,0 206.5,0 206.5,0 212.5,0 218.5,-6 218.5,-12 218.5,-12 218.5,-24 218.5,-24 218.5,-30 212.5,-36 206.5,-36"/>
<text text-anchor="middle" x="191.5" y="-14.88" font-family="sans" font-size="10.00">all</text>
</g>
<!-- 1 -->
<g id="node2" class="node">
<title>1</title>
<path fill="none" stroke="#59d856" stroke-width="2" d="M212.62,-108C212.62,-108 170.38,-108 170.38,-108 164.38,-108 158.38,-102 158.38,-96 158.38,-96 158.38,-84 158.38,-84 158.38,-78 164.38,-72 170.38,-72 170.38,-72 212.62,-72 212.62,-72 218.62,-72 224.62,-78 224.62,-84 224.62,-84 224.62,-96 224.62,-96 224.62,-102 218.62,-108 212.62,-108"/>
<text text-anchor="middle" x="191.5" y="-86.88" font-family="sans" font-size="10.00">plot_quals</text>
</g>
<!-- 1&#45;&gt;0 -->
<g id="edge1" class="edge">
<title>1&#45;&gt;0</title>
<path fill="none" stroke="grey" stroke-width="2" d="M191.5,-71.34C191.5,-64.75 191.5,-57.08 191.5,-49.67"/>
<polygon fill="grey" stroke="grey" stroke-width="2" points="195,-49.93 191.5,-39.93 188,-49.93 195,-49.93"/>
</g>
<!-- 2 -->
<g id="node3" class="node">
<title>2</title>
<path fill="none" stroke="#d8ac56" stroke-width="2" d="M217.88,-180C217.88,-180 165.12,-180 165.12,-180 159.12,-180 153.12,-174 153.12,-168 153.12,-168 153.12,-156 153.12,-156 153.12,-150 159.12,-144 165.12,-144 165.12,-144 217.88,-144 217.88,-144 223.88,-144 229.88,-150 229.88,-156 229.88,-156 229.88,-168 229.88,-168 229.88,-174 223.88,-180 217.88,-180"/>
<text text-anchor="middle" x="191.5" y="-158.88" font-family="sans" font-size="10.00">bcftools_call</text>
</g>
<!-- 2&#45;&gt;1 -->
<g id="edge2" class="edge">
<title>2&#45;&gt;1</title>
<path fill="none" stroke="grey" stroke-width="2" d="M191.5,-143.34C191.5,-136.75 191.5,-129.08 191.5,-121.67"/>
<polygon fill="grey" stroke="grey" stroke-width="2" points="195,-121.93 191.5,-111.93 188,-121.93 195,-121.93"/>
</g>
<!-- 3 -->
<g id="node4" class="node">
<title>3</title>
<path fill="none" stroke="#56a9d8" stroke-width="2" d="M73,-324C73,-324 12,-324 12,-324 6,-324 0,-318 0,-312 0,-312 0,-300 0,-300 0,-294 6,-288 12,-288 12,-288 73,-288 73,-288 79,-288 85,-294 85,-300 85,-300 85,-312 85,-312 85,-318 79,-324 73,-324"/>
<text text-anchor="middle" x="42.5" y="-302.88" font-family="sans" font-size="10.00">samtools_sort</text>
</g>
<!-- 3&#45;&gt;2 -->
<g id="edge3" class="edge">
<title>3&#45;&gt;2</title>
<path fill="none" stroke="grey" stroke-width="2" d="M31.16,-287.23C20.44,-267.92 8.09,-237.02 23.5,-216 49.84,-180.07 100.61,-167.87 139.47,-164.03"/>
<polygon fill="grey" stroke="grey" stroke-width="2" points="139.69,-167.52 149.38,-163.24 139.14,-160.54 139.69,-167.52"/>
</g>
<!-- 9 -->
<g id="node10" class="node">
<title>9</title>
<path fill="none" stroke="#56d8a9" stroke-width="2" d="M114.12,-252C114.12,-252 44.88,-252 44.88,-252 38.88,-252 32.88,-246 32.88,-240 32.88,-240 32.88,-228 32.88,-228 32.88,-222 38.88,-216 44.88,-216 44.88,-216 114.12,-216 114.12,-216 120.12,-216 126.12,-222 126.12,-228 126.12,-228 126.12,-240 126.12,-240 126.12,-246 120.12,-252 114.12,-252"/>
<text text-anchor="middle" x="79.5" y="-230.88" font-family="sans" font-size="10.00">samtools_index</text>
</g>
<!-- 3&#45;&gt;9 -->
<g id="edge12" class="edge">
<title>3&#45;&gt;9</title>
<path fill="none" stroke="grey" stroke-width="2" d="M51.84,-287.34C55.53,-280.34 59.88,-272.12 64.02,-264.28"/>
<polygon fill="grey" stroke="grey" stroke-width="2" points="67.04,-266.05 68.62,-255.58 60.86,-262.78 67.04,-266.05"/>
</g>
<!-- 4 -->
<g id="node5" class="node">
<title>4</title>
<path fill="none" stroke="#afd856" stroke-width="2" d="M62.88,-396C62.88,-396 22.12,-396 22.12,-396 16.12,-396 10.12,-390 10.12,-384 10.12,-384 10.12,-372 10.12,-372 10.12,-366 16.12,-360 22.12,-360 22.12,-360 62.88,-360 62.88,-360 68.88,-360 74.88,-366 74.88,-372 74.88,-372 74.88,-384 74.88,-384 74.88,-390 68.88,-396 62.88,-396"/>
<text text-anchor="middle" x="42.5" y="-381.25" font-family="sans" font-size="10.00">bwa_map</text>
<text text-anchor="middle" x="42.5" y="-368.5" font-family="sans" font-size="10.00">sample: A</text>
</g>
<!-- 4&#45;&gt;3 -->
<g id="edge9" class="edge">
<title>4&#45;&gt;3</title>
<path fill="none" stroke="grey" stroke-width="2" d="M42.5,-359.34C42.5,-352.75 42.5,-345.08 42.5,-337.67"/>
<polygon fill="grey" stroke="grey" stroke-width="2" points="46,-337.93 42.5,-327.93 39,-337.93 46,-337.93"/>
</g>
<!-- 5 -->
<g id="node6" class="node">
<title>5</title>
<path fill="none" stroke="#56a9d8" stroke-width="2" d="M241,-324C241,-324 180,-324 180,-324 174,-324 168,-318 168,-312 168,-312 168,-300 168,-300 168,-294 174,-288 180,-288 180,-288 241,-288 241,-288 247,-288 253,-294 253,-300 253,-300 253,-312 253,-312 253,-318 247,-324 241,-324"/>
<text text-anchor="middle" x="210.5" y="-302.88" font-family="sans" font-size="10.00">samtools_sort</text>
</g>
<!-- 5&#45;&gt;2 -->
<g id="edge4" class="edge">
<title>5&#45;&gt;2</title>
<path fill="none" stroke="grey" stroke-width="2" d="M194.08,-287.37C186.2,-277.71 177.61,-265.06 173.5,-252 167.4,-232.61 172.01,-210.18 178.09,-192.69"/>
<polygon fill="grey" stroke="grey" stroke-width="2" points="181.3,-194.08 181.66,-183.49 174.78,-191.55 181.3,-194.08"/>
</g>
<!-- 10 -->
<g id="node11" class="node">
<title>10</title>
<path fill="none" stroke="#56d8a9" stroke-width="2" d="M264.12,-252C264.12,-252 194.88,-252 194.88,-252 188.88,-252 182.88,-246 182.88,-240 182.88,-240 182.88,-228 182.88,-228 182.88,-222 188.88,-216 194.88,-216 194.88,-216 264.12,-216 264.12,-216 270.12,-216 276.12,-222 276.12,-228 276.12,-228 276.12,-240 276.12,-240 276.12,-246 270.12,-252 264.12,-252"/>
<text text-anchor="middle" x="229.5" y="-230.88" font-family="sans" font-size="10.00">samtools_index</text>
</g>
<!-- 5&#45;&gt;10 -->
<g id="edge13" class="edge">
<title>5&#45;&gt;10</title>
<path fill="none" stroke="grey" stroke-width="2" d="M215.29,-287.34C217.1,-280.67 219.22,-272.89 221.25,-265.39"/>
<polygon fill="grey" stroke="grey" stroke-width="2" points="224.61,-266.39 223.85,-255.82 217.85,-264.56 224.61,-266.39"/>
</g>
<!-- 6 -->
<g id="node7" class="node">
<title>6</title>
<path fill="none" stroke="#afd856" stroke-width="2" d="M230.88,-396C230.88,-396 190.12,-396 190.12,-396 184.12,-396 178.12,-390 178.12,-384 178.12,-384 178.12,-372 178.12,-372 178.12,-366 184.12,-360 190.12,-360 190.12,-360 230.88,-360 230.88,-360 236.88,-360 242.88,-366 242.88,-372 242.88,-372 242.88,-384 242.88,-384 242.88,-390 236.88,-396 230.88,-396"/>
<text text-anchor="middle" x="210.5" y="-381.25" font-family="sans" font-size="10.00">bwa_map</text>
<text text-anchor="middle" x="210.5" y="-368.5" font-family="sans" font-size="10.00">sample: B</text>
</g>
<!-- 6&#45;&gt;5 -->
<g id="edge10" class="edge">
<title>6&#45;&gt;5</title>
<path fill="none" stroke="grey" stroke-width="2" d="M210.5,-359.34C210.5,-352.75 210.5,-345.08 210.5,-337.67"/>
<polygon fill="grey" stroke="grey" stroke-width="2" points="214,-337.93 210.5,-327.93 207,-337.93 214,-337.93"/>
</g>
<!-- 7 -->
<g id="node8" class="node">
<title>7</title>
<path fill="none" stroke="#56a9d8" stroke-width="2" d="M353,-324C353,-324 292,-324 292,-324 286,-324 280,-318 280,-312 280,-312 280,-300 280,-300 280,-294 286,-288 292,-288 292,-288 353,-288 353,-288 359,-288 365,-294 365,-300 365,-300 365,-312 365,-312 365,-318 359,-324 353,-324"/>
<text text-anchor="middle" x="322.5" y="-302.88" font-family="sans" font-size="10.00">samtools_sort</text>
</g>
<!-- 7&#45;&gt;2 -->
<g id="edge5" class="edge">
<title>7&#45;&gt;2</title>
<path fill="none" stroke="grey" stroke-width="2" d="M318.74,-287.09C313.9,-267.66 303.82,-236.65 285.5,-216 273.71,-202.71 257.76,-191.99 242.34,-183.77"/>
<polygon fill="grey" stroke="grey" stroke-width="2" points="243.95,-180.66 233.44,-179.32 240.82,-186.92 243.95,-180.66"/>
</g>
<!-- 11 -->
<g id="node12" class="node">
<title>11</title>
<path fill="none" stroke="#56d8a9" stroke-width="2" d="M414.12,-252C414.12,-252 344.88,-252 344.88,-252 338.88,-252 332.88,-246 332.88,-240 332.88,-240 332.88,-228 332.88,-228 332.88,-222 338.88,-216 344.88,-216 344.88,-216 414.12,-216 414.12,-216 420.12,-216 426.12,-222 426.12,-228 426.12,-228 426.12,-240 426.12,-240 426.12,-246 420.12,-252 414.12,-252"/>
<text text-anchor="middle" x="379.5" y="-230.88" font-family="sans" font-size="10.00">samtools_index</text>
</g>
<!-- 7&#45;&gt;11 -->
<g id="edge14" class="edge">
<title>7&#45;&gt;11</title>
<path fill="none" stroke="grey" stroke-width="2" d="M336.88,-287.34C342.91,-279.93 350.07,-271.14 356.78,-262.9"/>
<polygon fill="grey" stroke="grey" stroke-width="2" points="359.41,-265.21 363.01,-255.25 353.98,-260.79 359.41,-265.21"/>
</g>
<!-- 8 -->
<g id="node9" class="node">
<title>8</title>
<path fill="none" stroke="#afd856" stroke-width="2" d="M342.88,-396C342.88,-396 302.12,-396 302.12,-396 296.12,-396 290.12,-390 290.12,-384 290.12,-384 290.12,-372 290.12,-372 290.12,-366 296.12,-360 302.12,-360 302.12,-360 342.88,-360 342.88,-360 348.88,-360 354.88,-366 354.88,-372 354.88,-372 354.88,-384 354.88,-384 354.88,-390 348.88,-396 342.88,-396"/>
<text text-anchor="middle" x="322.5" y="-381.25" font-family="sans" font-size="10.00">bwa_map</text>
<text text-anchor="middle" x="322.5" y="-368.5" font-family="sans" font-size="10.00">sample: C</text>
</g>
<!-- 8&#45;&gt;7 -->
<g id="edge11" class="edge">
<title>8&#45;&gt;7</title>
<path fill="none" stroke="grey" stroke-width="2" d="M322.5,-359.34C322.5,-352.75 322.5,-345.08 322.5,-337.67"/>
<polygon fill="grey" stroke="grey" stroke-width="2" points="326,-337.93 322.5,-327.93 319,-337.93 326,-337.93"/>
</g>
<!-- 9&#45;&gt;2 -->
<g id="edge6" class="edge">
<title>9&#45;&gt;2</title>
<path fill="none" stroke="grey" stroke-width="2" d="M108.05,-215.15C121.48,-206.76 137.71,-196.62 152.26,-187.52"/>
<polygon fill="grey" stroke="grey" stroke-width="2" points="153.81,-190.68 160.43,-182.42 150.1,-184.75 153.81,-190.68"/>
</g>
<!-- 10&#45;&gt;2 -->
<g id="edge7" class="edge">
<title>10&#45;&gt;2</title>
<path fill="none" stroke="grey" stroke-width="2" d="M219.91,-215.34C216.11,-208.34 211.65,-200.12 207.39,-192.28"/>
<polygon fill="grey" stroke="grey" stroke-width="2" points="210.51,-190.68 202.66,-183.56 204.36,-194.02 210.51,-190.68"/>
</g>
<!-- 11&#45;&gt;2 -->
<g id="edge8" class="edge">
<title>11&#45;&gt;2</title>
<path fill="none" stroke="grey" stroke-width="2" d="M332.06,-215.34C304.77,-205.18 270.48,-192.41 242.6,-182.02"/>
<polygon fill="grey" stroke="grey" stroke-width="2" points="244.11,-178.85 233.52,-178.65 241.67,-185.41 244.11,-178.85"/>
</g>
</g>
</svg>
